<svg width="198" height="165" viewBox="0 0 198 165" fill="none" xmlns="http://www.w3.org/2000/svg">
    <path d="M159.685 0H38.6098C37.234 0 35.8581 0.643902 35.1702 1.93171L0.773916 49.2585C-0.257972 50.5463 -0.257972 52.4781 0.773916 53.7659L95.7076 163.551C97.4274 165.483 100.523 165.483 102.243 163.551L197.177 53.7659C198.208 52.4781 198.208 50.5463 197.521 49.2585L163.124 1.93171C162.092 0.643902 161.061 0 159.685 0ZM152.805 15.4537L174.819 46.361H151.086L133.2 15.4537H152.805ZM83.325 15.4537H114.626L132.512 46.361H65.7829L83.325 15.4537ZM45.1451 15.4537H64.751L46.8649 46.361H23.4755L45.1451 15.4537ZM30.3547 61.8146H47.8968L71.6302 113.327L30.3547 61.8146ZM65.7829 59.8735H132.168L99.1472 140.371L65.7829 59.8735ZM126.664 113.327L150.054 61.8146H167.596L126.664 113.327Z"
          fill="rgb(255, 121, 237)"/>
</svg>
