<?xml version="1.0" standalone="no"?>
<!DOCTYPE svg PUBLIC "-//W3C//DTD SVG 20010904//EN"
        "http://www.w3.org/TR/2001/REC-SVG-20010904/DTD/svg10.dtd">
<svg version="1.0" xmlns="http://www.w3.org/2000/svg"
     width="792.000000pt" height="792.000000pt" viewBox="0 0 792.000000 792.000000"
     preserveAspectRatio="xMidYMid meet">
    <metadata>
        Created by potrace 1.14, written by Peter Selinger 2001-2017
    </metadata>
    <g transform="translate(0.000000,792.000000) scale(0.100000,-0.100000)"
       fill="#000000" stroke="none">
        <path d="M1475 7244 c-34 -17 -75 -58 -75 -74 0 -5 -4 -10 -10 -10 -5 0 -10
-6 -10 -14 0 -8 -4 -16 -9 -18 -4 -1 -37 -43 -72 -93 -35 -49 -67 -94 -71
-100 -20 -24 -166 -225 -193 -265 -16 -25 -38 -54 -47 -65 -9 -11 -80 -108
-158 -215 -77 -107 -146 -202 -153 -210 -7 -9 -28 -38 -47 -65 -19 -28 -38
-54 -42 -60 -16 -20 -105 -141 -153 -210 -27 -38 -54 -75 -60 -81 -5 -6 -17
-21 -25 -34 -8 -12 -67 -93 -130 -180 -63 -87 -122 -168 -130 -180 -8 -12 -25
-34 -38 -48 -67 -80 -68 -165 -2 -233 8 -8 31 -35 50 -59 19 -24 46 -55 60
-70 14 -15 44 -50 66 -76 43 -50 50 -58 132 -153 58 -66 73 -84 120 -140 20
-24 44 -51 53 -60 8 -9 40 -45 70 -81 30 -36 61 -72 69 -80 9 -8 40 -44 70
-80 84 -99 103 -121 128 -146 13 -13 20 -24 16 -24 -3 0 3 -8 14 -17 17 -15
99 -109 202 -230 59 -69 126 -147 136 -157 5 -6 39 -45 74 -86 35 -41 74 -86
87 -100 12 -14 31 -35 40 -46 10 -12 39 -46 65 -75 25 -30 56 -65 67 -79 32
-38 113 -131 138 -157 11 -13 36 -43 55 -65 18 -23 42 -51 53 -62 11 -12 58
-66 105 -121 47 -55 93 -109 103 -120 10 -11 33 -37 50 -58 18 -21 43 -51 57
-66 14 -15 48 -54 75 -86 28 -32 57 -66 65 -74 8 -9 53 -61 100 -116 46 -55
89 -105 95 -111 5 -6 33 -37 60 -69 28 -32 60 -70 73 -83 12 -14 40 -46 61
-71 22 -25 49 -57 61 -71 12 -14 40 -47 63 -74 23 -27 47 -54 52 -60 6 -6 39
-45 75 -86 36 -41 70 -80 76 -86 5 -6 26 -30 45 -54 18 -23 45 -54 59 -69 14
-15 36 -40 50 -57 111 -130 215 -251 224 -259 6 -5 33 -37 60 -70 28 -33 57
-67 65 -76 16 -16 34 -38 177 -204 38 -44 71 -82 74 -85 3 -3 29 -33 59 -67
75 -87 146 -112 227 -78 38 16 41 18 105 91 24 27 71 81 104 119 33 37 66 77
73 87 8 10 23 29 35 41 24 25 31 33 185 212 57 66 114 131 126 145 12 14 66
77 121 140 54 63 106 123 114 132 17 19 17 18 110 128 35 41 67 77 70 80 3 3
31 34 61 70 61 72 107 125 130 150 8 9 31 36 51 60 20 25 47 56 60 71 13 14
42 47 64 74 22 26 47 55 56 64 8 9 46 52 84 96 37 44 77 90 89 101 11 12 30
32 40 45 31 38 188 222 205 240 9 9 32 36 51 60 19 23 44 52 56 63 11 12 45
50 74 86 30 36 72 85 95 111 22 25 63 71 90 103 28 33 57 66 65 75 8 9 51 59
95 111 44 52 91 107 105 121 14 15 43 48 65 75 22 26 51 59 64 73 13 14 37 43
55 64 17 21 40 49 51 61 74 84 105 119 141 162 23 27 52 60 64 74 36 42 98
113 121 140 11 14 42 49 67 79 26 29 55 63 65 75 10 11 42 48 71 81 79 90 249
287 271 314 11 13 25 28 30 35 6 6 67 76 135 156 69 80 135 156 147 170 42 46
40 155 -4 206 -10 11 -22 27 -28 36 -10 16 -162 226 -188 258 -7 9 -28 38 -47
65 -19 28 -38 55 -43 60 -4 6 -43 60 -87 120 -44 61 -83 115 -87 120 -4 6 -37
51 -73 100 -35 50 -68 95 -72 100 -5 6 -33 44 -63 85 -102 142 -130 181 -170
235 -22 30 -51 71 -65 90 -14 20 -30 42 -35 48 -6 7 -26 35 -45 62 -19 28 -38
52 -41 55 -3 3 -21 28 -40 55 -35 51 -90 126 -99 135 -3 3 -9 12 -15 21 -31
50 -162 224 -190 252 -19 19 -49 37 -66 41 -17 3 -1132 6 -2478 6 -2189 0
-2449 -2 -2476 -16z m1083 -603 l32 -1 -25 -40 c-14 -22 -25 -44 -25 -50 0 -5
-3 -10 -7 -10 -5 0 -13 -10 -19 -23 -17 -35 -63 -119 -85 -152 -10 -16 -22
-37 -26 -45 -4 -8 -30 -54 -59 -102 -29 -49 -49 -88 -46 -88 4 0 2 -4 -4 -8
-6 -4 -24 -29 -38 -57 -15 -27 -38 -68 -52 -90 -13 -22 -34 -58 -46 -80 -12
-22 -27 -47 -33 -57 -5 -9 -41 -70 -78 -135 -37 -65 -91 -158 -120 -208 l-52
-89 -445 -1 c-245 0 -455 1 -467 3 -21 4 -21 6 16 56 21 28 64 89 96 136 32
47 62 87 65 90 4 3 15 20 25 38 11 17 23 32 27 32 4 0 8 5 8 10 0 6 18 35 40
65 22 30 40 59 40 65 0 5 4 10 8 10 5 0 28 30 52 68 25 37 47 69 51 72 3 3 25
34 49 70 24 36 48 70 53 75 18 21 307 439 307 444 0 5 563 6 758 2z m2013 0
c9 -1 47 -57 95 -138 43 -76 84 -145 89 -155 6 -9 17 -29 26 -45 9 -15 42 -73
74 -128 80 -138 230 -397 272 -470 18 -33 39 -69 46 -80 57 -92 117 -202 117
-213 0 -5 -2614 -9 -2653 -3 -4 0 4 18 18 38 14 21 25 43 25 49 0 7 4 14 8 16
8 3 24 30 98 168 10 19 22 37 27 38 4 2 7 7 7 12 0 7 197 360 274 490 15 25
33 59 42 75 8 17 23 44 34 60 11 17 24 39 30 50 5 11 25 47 45 80 19 33 41 71
47 85 7 14 15 27 19 30 3 3 8 13 12 22 3 10 19 18 39 20 26 2 1146 1 1209 -1z
m1571 -42 c21 -24 38 -49 38 -56 0 -6 4 -13 8 -15 5 -1 41 -50 82 -108 41 -58
78 -109 82 -115 5 -5 61 -84 125 -175 64 -91 121 -166 125 -168 4 -2 8 -9 8
-14 0 -6 17 -34 38 -62 22 -28 68 -91 103 -141 35 -49 67 -91 72 -93 4 -2 7
-8 7 -13 0 -6 5 -15 10 -22 36 -41 148 -207 142 -210 -4 -2 -215 -3 -470 -2
l-464 1 -19 24 c-10 14 -19 29 -19 34 0 5 -6 17 -14 25 -7 9 -28 43 -45 76
-18 33 -52 93 -77 133 -24 41 -44 78 -44 83 0 5 -4 9 -10 9 -5 0 -10 5 -10 10
0 6 -32 65 -71 133 -40 67 -81 138 -92 157 -10 19 -41 72 -68 118 -27 45 -49
87 -49 92 0 6 -3 10 -7 10 -5 0 -13 10 -19 23 -17 35 -61 115 -119 212 -39 66
-49 91 -39 95 7 3 181 4 386 4 l373 -2 37 -43z m-867 -1759 c-4 -14 -17 -49
-31 -78 -13 -29 -24 -56 -24 -61 0 -4 -6 -21 -14 -37 -8 -16 -40 -92 -71 -169
-31 -77 -63 -153 -70 -170 -24 -55 -190 -460 -191 -465 0 -3 -8 -22 -17 -44
-9 -21 -17 -40 -17 -42 0 -2 -9 -23 -19 -47 -11 -23 -40 -94 -66 -157 -44
-111 -52 -131 -80 -195 -7 -16 -23 -55 -34 -85 -12 -30 -26 -64 -31 -75 -5
-11 -30 -72 -56 -135 -25 -63 -54 -133 -64 -155 -9 -22 -25 -62 -35 -90 -10
-27 -21 -54 -25 -60 -4 -5 -16 -35 -28 -65 -12 -30 -27 -68 -33 -85 -7 -16
-12 -33 -11 -37 1 -5 -2 -8 -8 -8 -5 0 -10 -6 -10 -12 0 -7 -32 -89 -71 -183
-39 -93 -72 -174 -73 -180 -1 -5 -10 -28 -20 -50 -10 -22 -42 -101 -73 -175
-30 -74 -61 -148 -68 -165 -7 -16 -25 -61 -41 -99 l-28 -68 -13 28 c-7 16 -42
101 -79 189 -36 88 -71 171 -77 185 -6 14 -11 27 -12 30 -6 17 -19 49 -30 75
-7 17 -35 82 -60 145 -26 63 -53 129 -60 145 -7 17 -25 59 -39 95 -15 36 -31
74 -36 85 -5 11 -21 49 -36 85 -14 36 -31 76 -37 90 -6 14 -11 27 -12 30 -8
24 -18 48 -25 61 -5 9 -32 74 -60 145 -54 132 -69 168 -95 228 -28 64 -76 181
-78 191 -2 6 -5 15 -9 20 -3 6 -47 111 -98 235 -88 216 -102 249 -134 323 -8
17 -35 82 -59 142 -105 257 -104 254 -105 269 0 5 -4 12 -9 15 -10 7 -113 261
-113 278 0 6 -3 13 -7 15 -13 5 -51 107 -42 110 5 2 601 3 1325 3 l1315 0 -6
-25z m-3346 -85 c8 -16 18 -37 23 -45 4 -8 13 -25 18 -38 5 -13 21 -47 34 -75
13 -29 36 -79 51 -112 15 -33 43 -94 62 -135 41 -88 68 -146 173 -375 76 -167
93 -203 184 -398 25 -54 46 -100 46 -102 0 -2 27 -61 60 -130 33 -69 60 -127
60 -129 0 -2 17 -39 37 -82 20 -43 38 -81 38 -84 3 -10 76 -166 109 -232 19
-38 32 -68 30 -68 -6 0 -54 51 -54 58 0 4 -13 21 -28 37 -15 17 -43 50 -61 75
-19 25 -39 50 -45 55 -6 6 -24 28 -41 50 -30 41 -43 57 -60 78 -6 7 -38 46
-70 87 -33 41 -62 77 -65 80 -3 3 -75 93 -160 200 -85 107 -157 197 -160 200
-3 3 -104 129 -225 280 -120 151 -222 277 -225 280 -3 3 -21 25 -40 50 -19 25
-39 50 -45 57 -5 6 -20 24 -32 40 -12 15 -31 39 -42 53 -11 14 -24 30 -29 35
-4 6 -62 79 -130 163 -67 84 -122 154 -122 156 0 1 156 3 347 2 l347 -1 15
-30z m4764 21 c-4 -6 -27 -36 -51 -66 -79 -98 -87 -108 -102 -130 -8 -12 -25
-33 -37 -46 -12 -13 -34 -40 -50 -61 -15 -21 -36 -47 -45 -58 -20 -24 -47 -58
-70 -88 -10 -12 -46 -58 -81 -102 -35 -44 -153 -192 -262 -330 -247 -311 -309
-389 -315 -395 -3 -3 -17 -21 -31 -40 -15 -19 -35 -45 -45 -57 -11 -12 -28
-34 -39 -49 -11 -15 -25 -32 -30 -38 -6 -6 -87 -108 -180 -226 -93 -118 -172
-217 -175 -220 -4 -3 -26 -31 -49 -62 -24 -32 -48 -58 -55 -57 -7 0 -6 2 2 6
6 2 12 9 12 14 0 6 13 38 29 72 16 34 64 139 106 232 43 94 87 190 98 215 11
25 21 47 22 50 2 8 37 83 50 110 7 14 41 88 74 165 34 77 66 148 71 157 6 10
30 61 54 115 24 54 56 125 71 158 15 33 39 85 53 115 14 30 27 57 27 60 1 3
12 28 25 55 13 28 24 53 24 56 1 3 11 25 23 50 24 50 67 144 137 300 l47 106
349 0 c251 0 347 -3 343 -11z"/>
    </g>
</svg>
